<svg xmlns="http://www.w3.org/2000/svg" width="256" height="256" viewBox="0 0 100 100"><rect width="100" height="100" rx="20" fill="#080808"></rect><path fill="#fff" d="M14.28 67.16L14.28 35.18L10.58 35.18Q7.67 35.18 6.14 36.64Q4.60 38.09 4.60 41.42L4.60 41.42L3.04 41.42L3.04 37.00Q3.04 32.84 7.46 32.84L7.46 32.84L31.90 32.84L31.90 35.18L21.04 35.18L21.04 67.16L14.28 67.16ZM49.12 68.20Q44.07 68.20 40.15 65.81Q36.22 63.42 34.09 59.26Q31.96 55.10 31.96 50.00L31.96 50.00Q31.96 44.90 34.09 40.74Q36.22 36.58 40.15 34.19Q44.07 31.80 49.12 31.80L49.12 31.80Q54.16 31.80 58.06 34.19Q61.96 36.58 64.09 40.74Q66.22 44.90 66.22 50.00L66.22 50.00Q66.22 55.10 64.09 59.26Q61.96 63.42 58.06 65.81Q54.16 68.20 49.12 68.20L49.12 68.20ZM49.12 65.86Q53.85 65.86 56.45 61.73Q59.05 57.59 59.05 50.00L59.05 50.00Q59.05 42.41 56.45 38.27Q53.85 34.14 49.12 34.14L49.12 34.14Q44.38 34.14 41.81 38.27Q39.24 42.41 39.24 50.00L39.24 50.00Q39.24 57.59 41.81 61.73Q44.38 65.86 49.12 65.86L49.12 65.86ZM72.78 67.16L72.78 39.60Q72.78 36.95 72.05 35.67Q71.32 34.40 69.14 34.40L69.14 34.40L68.62 34.40L68.62 32.84L82.92 32.84Q88.27 32.84 92.61 34.95Q96.96 37.05 96.96 43.29L96.96 43.29Q96.96 47.35 94.69 49.58Q92.43 51.82 89.62 52.55Q86.82 53.28 84.48 53.28L84.48 53.28L79.54 53.28L79.54 67.16L72.78 67.16ZM79.54 51.20L82.66 51.20Q85.72 51.20 87.70 49.32Q89.68 47.45 89.68 43.03L89.68 43.03Q89.68 38.66 87.73 36.79Q85.78 34.92 82.92 34.92L82.92 34.92Q81.41 34.92 80.58 35.13L80.58 35.13L79.54 35.28L79.54 51.20Z"></path></svg>